<svg width="86" height="23" viewBox="0 0 86 23" fill="none" xmlns="http://www.w3.org/2000/svg">
<path d="M3.52734 10.5234L10.8281 13.0781V16.4648L0.585938 12.2109V9.76172L3.52734 10.5234ZM10.8281 8.44922L3.52734 11.0508L0.585938 11.7891V9.32812L10.8281 5.07422V8.44922ZM20.2031 14.4727C20.2031 14.2383 20.1289 14.0312 19.9805 13.8516C19.8398 13.6719 19.582 13.5078 19.207 13.3594C18.8398 13.2109 18.3203 13.0625 17.6484 12.9141C17.0156 12.7812 16.4258 12.6094 15.8789 12.3984C15.332 12.1797 14.8555 11.918 14.4492 11.6133C14.043 11.3008 13.7266 10.9336 13.5 10.5117C13.2734 10.082 13.1602 9.59375 13.1602 9.04688C13.1602 8.51562 13.2734 8.01172 13.5 7.53516C13.7344 7.05859 14.0703 6.63672 14.5078 6.26953C14.9531 5.90234 15.4922 5.61328 16.125 5.40234C16.7656 5.19141 17.4922 5.08594 18.3047 5.08594C19.4219 5.08594 20.3867 5.26172 21.1992 5.61328C22.0117 5.95703 22.6367 6.44141 23.0742 7.06641C23.5117 7.68359 23.7305 8.39062 23.7305 9.1875H20.0742C20.0742 8.85938 20.0117 8.57422 19.8867 8.33203C19.7617 8.08984 19.5703 7.90234 19.3125 7.76953C19.0547 7.62891 18.7148 7.55859 18.293 7.55859C17.9648 7.55859 17.6758 7.61719 17.4258 7.73438C17.1836 7.84375 16.9922 7.99609 16.8516 8.19141C16.7188 8.38672 16.6523 8.61328 16.6523 8.87109C16.6523 9.05078 16.6914 9.21484 16.7695 9.36328C16.8555 9.50391 16.9844 9.63672 17.1562 9.76172C17.3359 9.87891 17.5664 9.98438 17.8477 10.0781C18.1367 10.1719 18.4883 10.2617 18.9023 10.3477C19.7852 10.5117 20.5898 10.7422 21.3164 11.0391C22.0508 11.3359 22.6367 11.7461 23.0742 12.2695C23.5195 12.793 23.7422 13.4844 23.7422 14.3438C23.7422 14.9062 23.6133 15.4219 23.3555 15.8906C23.1055 16.3594 22.7422 16.7695 22.2656 17.1211C21.7891 17.4727 21.2188 17.7461 20.5547 17.9414C19.8906 18.1367 19.1406 18.2344 18.3047 18.2344C17.1094 18.2344 16.0977 18.0195 15.2695 17.5898C14.4414 17.1602 13.8164 16.6211 13.3945 15.9727C12.9805 15.3164 12.7734 14.6445 12.7734 13.957H16.207C16.2227 14.3789 16.3281 14.7227 16.5234 14.9883C16.7266 15.2539 16.9883 15.4492 17.3086 15.5742C17.6289 15.6914 17.9883 15.75 18.3867 15.75C18.7852 15.75 19.1172 15.6953 19.3828 15.5859C19.6484 15.4766 19.8516 15.3281 19.9922 15.1406C20.1328 14.9453 20.2031 14.7227 20.2031 14.4727ZM31.0781 15.3867C31.4688 15.3867 31.8086 15.3125 32.0977 15.1641C32.3867 15.0156 32.6094 14.8086 32.7656 14.543C32.9297 14.2695 33.0117 13.9414 33.0117 13.5586H36.457C36.457 14.4805 36.2188 15.293 35.7422 15.9961C35.2734 16.6992 34.6406 17.25 33.8438 17.6484C33.0469 18.0391 32.1484 18.2344 31.1484 18.2344C30.1641 18.2344 29.3047 18.0742 28.5703 17.7539C27.8359 17.4258 27.2227 16.9688 26.7305 16.3828C26.2383 15.7969 25.8672 15.1172 25.6172 14.3438C25.375 13.5625 25.2539 12.7188 25.2539 11.8125V11.5078C25.2539 10.6094 25.375 9.76953 25.6172 8.98828C25.8672 8.20703 26.2383 7.52344 26.7305 6.9375C27.2227 6.35156 27.832 5.89844 28.5586 5.57812C29.293 5.25 30.1523 5.08594 31.1367 5.08594C32.1758 5.08594 33.0938 5.28516 33.8906 5.68359C34.6953 6.08203 35.3242 6.65625 35.7773 7.40625C36.2305 8.14844 36.457 9.04297 36.457 10.0898H33.0117C33.0117 9.68359 32.9375 9.32031 32.7891 9C32.6484 8.67188 32.4297 8.41406 32.1328 8.22656C31.8438 8.03125 31.4844 7.93359 31.0547 7.93359C30.6094 7.93359 30.2422 8.03125 29.9531 8.22656C29.6719 8.41406 29.457 8.67578 29.3086 9.01172C29.1602 9.34766 29.0586 9.73047 29.0039 10.1602C28.9492 10.582 28.9219 11.0312 28.9219 11.5078V11.8125C28.9219 12.2969 28.9492 12.7578 29.0039 13.1953C29.0586 13.625 29.1602 14.0039 29.3086 14.332C29.4648 14.6602 29.6836 14.918 29.9648 15.1055C30.2461 15.293 30.6172 15.3867 31.0781 15.3867ZM41.9414 8.27344V18H38.2852V5.32031H41.7188L41.9414 8.27344ZM45.7266 5.22656L45.668 8.63672C45.5117 8.61328 45.3086 8.59375 45.0586 8.57812C44.8086 8.55469 44.5938 8.54297 44.4141 8.54297C43.9453 8.54297 43.5391 8.60156 43.1953 8.71875C42.8594 8.82812 42.5781 8.99219 42.3516 9.21094C42.1328 9.42969 41.9688 9.70312 41.8594 10.0312C41.75 10.3516 41.6953 10.7227 41.6953 11.1445L41.0039 10.8047C41.0039 9.96875 41.0859 9.20312 41.25 8.50781C41.4141 7.8125 41.6523 7.21094 41.9648 6.70312C42.2773 6.1875 42.6602 5.78906 43.1133 5.50781C43.5664 5.22656 44.082 5.08594 44.6602 5.08594C44.8477 5.08594 45.0391 5.09766 45.2344 5.12109C45.4297 5.14453 45.5938 5.17969 45.7266 5.22656ZM51.082 5.32031V18H47.4141V5.32031H51.082ZM47.1914 2.03906C47.1914 1.50781 47.3789 1.07422 47.7539 0.738281C48.1289 0.394531 48.6211 0.222656 49.2305 0.222656C49.8398 0.222656 50.332 0.394531 50.707 0.738281C51.0898 1.07422 51.2812 1.50781 51.2812 2.03906C51.2812 2.5625 51.0898 2.99609 50.707 3.33984C50.332 3.67578 49.8398 3.84375 49.2305 3.84375C48.6211 3.84375 48.1289 3.67578 47.7539 3.33984C47.3789 2.99609 47.1914 2.5625 47.1914 2.03906ZM57.3867 7.75781V22.875H53.7305V5.32031H57.1406L57.3867 7.75781ZM65.2969 11.5195V11.7656C65.2969 12.6875 65.1914 13.543 64.9805 14.332C64.7695 15.1133 64.4531 15.7969 64.0312 16.3828C63.6172 16.9688 63.1055 17.4258 62.4961 17.7539C61.8867 18.0742 61.1797 18.2344 60.375 18.2344C59.6094 18.2344 58.9453 18.0742 58.3828 17.7539C57.8281 17.4258 57.3594 16.9727 56.9766 16.3945C56.6016 15.8086 56.2969 15.1406 56.0625 14.3906C55.8359 13.6328 55.6602 12.8242 55.5352 11.9648V11.4844C55.6602 10.5703 55.8398 9.72266 56.0742 8.94141C56.3086 8.16016 56.6133 7.48438 56.9883 6.91406C57.3633 6.33594 57.8281 5.88672 58.3828 5.56641C58.9375 5.24609 59.5977 5.08594 60.3633 5.08594C61.1602 5.08594 61.8672 5.23828 62.4844 5.54297C63.1016 5.84766 63.6172 6.28516 64.0312 6.85547C64.4531 7.41797 64.7695 8.09375 64.9805 8.88281C65.1914 9.67188 65.2969 10.5508 65.2969 11.5195ZM61.6289 11.7656V11.5195C61.6289 11.0039 61.5898 10.5312 61.5117 10.1016C61.4336 9.66406 61.3086 9.28516 61.1367 8.96484C60.9648 8.63672 60.7383 8.38281 60.457 8.20312C60.1758 8.02344 59.832 7.93359 59.4258 7.93359C58.9883 7.93359 58.6172 8.00391 58.3125 8.14453C58.0078 8.28516 57.7617 8.49219 57.5742 8.76562C57.3867 9.03125 57.25 9.35938 57.1641 9.75C57.0859 10.1406 57.043 10.5859 57.0352 11.0859V12.375C57.043 12.9609 57.125 13.4844 57.2812 13.9453C57.4453 14.3984 57.6992 14.7539 58.043 15.0117C58.3945 15.2617 58.8633 15.3867 59.4492 15.3867C59.8633 15.3867 60.207 15.2969 60.4805 15.1172C60.7617 14.9297 60.9844 14.668 61.1484 14.332C61.3203 13.9961 61.4414 13.6094 61.5117 13.1719C61.5898 12.7344 61.6289 12.2656 61.6289 11.7656ZM73.6875 5.32031V7.88672H66.1641V5.32031H73.6875ZM67.8867 2.17969H71.5547V14.0273C71.5547 14.3789 71.5977 14.6484 71.6836 14.8359C71.7695 15.0234 71.9102 15.1562 72.1055 15.2344C72.3008 15.3047 72.5508 15.3398 72.8555 15.3398C73.0742 15.3398 73.2617 15.332 73.418 15.3164C73.5742 15.3008 73.7188 15.2812 73.8516 15.2578V17.9062C73.5391 18.0078 73.207 18.0859 72.8555 18.1406C72.5039 18.2031 72.1211 18.2344 71.707 18.2344C70.918 18.2344 70.2344 18.1055 69.6562 17.8477C69.0859 17.5898 68.6484 17.1836 68.3438 16.6289C68.0391 16.0664 67.8867 15.3359 67.8867 14.4375V2.17969ZM82.8867 10.9922L75.5742 8.44922V5.07422L85.8398 9.32812V11.8008L82.8867 10.9922ZM75.5742 13.1133L82.8984 10.5L85.8398 9.76172V12.2227L75.5742 16.4766V13.1133Z" fill="#304CFD"/>
</svg>
