<svg width="17" height="14" viewBox="0 0 17 14" fill="none" xmlns="http://www.w3.org/2000/svg">
<path d="M10.166 2.46634V1.44547C10.166 1.37432 10.1831 1.30421 10.2157 1.241C10.2484 1.17779 10.2957 1.12332 10.3537 1.08215C10.4117 1.04098 10.4788 1.01431 10.5492 1.00437C10.6197 0.994429 10.6915 1.00151 10.7586 1.02501L11.4122 1.25376C12.2002 1.52957 12.9087 1.9943 13.4756 2.60727C14.0424 3.22025 14.4504 3.9628 14.6639 4.76996L15.9062 9.46731C15.9685 9.70297 16 9.94571 16 10.1895V10.1895C16 10.6606 15.8822 11.1243 15.6572 11.5383C15.4321 11.9523 15.1071 12.3034 14.7118 12.5597L14.0012 13.0202C13.611 13.2731 13.1406 13.3716 12.6818 13.2965C12.2229 13.2213 11.8085 12.978 11.5193 12.6138L10.8635 11.7881" stroke="#999AA2" stroke-width="0.7" stroke-linecap="round" stroke-linejoin="round"/>
<path d="M6.83402 2.46634V1.44547C6.83402 1.37432 6.81698 1.30421 6.78432 1.241C6.75167 1.17779 6.70435 1.12332 6.64632 1.08215C6.58829 1.04098 6.52125 1.01431 6.4508 1.00437C6.38035 0.994429 6.30855 1.00151 6.24139 1.02501L5.58782 1.25376C4.79979 1.52957 4.09135 1.9943 3.52449 2.60727C2.95762 3.22025 2.54961 3.9628 2.33615 4.76996L1.09388 9.46731C1.03156 9.70297 1 9.94571 1 10.1895V10.1895C1 10.6606 1.11787 11.1243 1.34288 11.5383C1.56789 11.9523 1.89289 12.3034 2.28828 12.5597L2.99882 13.0202C3.389 13.2731 3.8594 13.3716 4.31827 13.2965C4.77714 13.2213 5.19157 12.978 5.48073 12.6138L6.1365 11.7881" stroke="#999AA2" stroke-width="0.7" stroke-linecap="round" stroke-linejoin="round"/>
<path d="M4.26855 3.44927C5.50545 2.67916 6.93336 2.27097 8.39041 2.27097C9.84746 2.27097 11.2754 2.67916 12.5123 3.44927V3.44927" stroke="#999AA2" stroke-width="0.7" stroke-linecap="round" stroke-linejoin="round"/>
<path d="M13.3155 10.8474C11.7893 11.622 10.1019 12.0257 8.39043 12.0257C6.67891 12.0257 4.99153 11.622 3.46533 10.8474V10.8474" stroke="#999AA2" stroke-width="0.7" stroke-linecap="round" stroke-linejoin="round"/>
<path d="M10.6257 10.2028C11.3349 10.2028 11.9098 9.52171 11.9098 8.68159C11.9098 7.84146 11.3349 7.1604 10.6257 7.1604C9.91647 7.1604 9.34155 7.84146 9.34155 8.68159C9.34155 9.52171 9.91647 10.2028 10.6257 10.2028Z" stroke="#999AA2" stroke-width="0.7" stroke-linecap="round" stroke-linejoin="round"/>
<path d="M5.94598 10.2028C6.65518 10.2028 7.2301 9.52171 7.2301 8.68159C7.2301 7.84146 6.65518 7.1604 5.94598 7.1604C5.23679 7.1604 4.66187 7.84146 4.66187 8.68159C4.66187 9.52171 5.23679 10.2028 5.94598 10.2028Z" stroke="#999AA2" stroke-width="0.7" stroke-linecap="round" stroke-linejoin="round"/>
</svg>
