<svg width="38" height="37" viewBox="0 0 38 37" fill="none" xmlns="http://www.w3.org/2000/svg">
<path d="M34.6475 9.24833C32.987 6.40324 30.7346 4.15077 27.8898 2.49043C25.0445 0.830002 21.9384 0 18.5691 0C15.2002 0 12.093 0.830256 9.24833 2.49043C6.40324 4.15069 4.15094 6.40324 2.49043 9.24833C0.830172 12.0933 0 15.2001 0 18.5686C0 22.6148 1.18052 26.2533 3.54214 29.485C5.90351 32.717 8.95405 34.9533 12.6935 36.1944C13.1288 36.2752 13.451 36.2184 13.6605 36.0254C13.8701 35.8321 13.9748 35.5901 13.9748 35.3003C13.9748 35.2519 13.9706 34.8169 13.9626 33.9947C13.9543 33.1725 13.9504 32.4552 13.9504 31.8432L13.3943 31.9394C13.0397 32.0043 12.5924 32.0318 12.0523 32.0241C11.5126 32.0165 10.9522 31.9599 10.372 31.8548C9.79158 31.7505 9.25172 31.5087 8.75199 31.1299C8.25251 30.7511 7.89793 30.2553 7.68834 29.6432L7.44656 29.0868C7.2854 28.7164 7.03169 28.3049 6.68507 27.8539C6.33845 27.4024 5.98794 27.0964 5.63336 26.9352L5.46407 26.814C5.35127 26.7335 5.2466 26.6364 5.14981 26.5237C5.0531 26.4109 4.98069 26.2981 4.93233 26.1852C4.88389 26.0721 4.92404 25.9794 5.05318 25.9066C5.18233 25.8339 5.41572 25.7986 5.75438 25.7986L6.23776 25.8708C6.56016 25.9354 6.95894 26.1284 7.43462 26.451C7.91004 26.7733 8.30087 27.1923 8.60717 27.7079C8.9781 28.3689 9.42498 28.8727 9.9491 29.2193C10.4728 29.5659 11.0008 29.7389 11.5326 29.7389C12.0645 29.7389 12.5238 29.6986 12.9108 29.6184C13.2974 29.5378 13.6601 29.4166 13.9988 29.2555C14.1438 28.1751 14.5388 27.3451 15.1833 26.7649C14.2647 26.6684 13.4387 26.523 12.7051 26.3296C11.9719 26.136 11.2142 25.8219 10.4326 25.3862C9.6505 24.9512 9.00172 24.411 8.48607 23.7665C7.97034 23.1218 7.54708 22.2752 7.21689 21.2278C6.88654 20.1799 6.72131 18.9711 6.72131 17.601C6.72131 15.6503 7.35815 13.9903 8.63156 12.6201C8.03504 11.1535 8.09136 9.50941 8.80068 7.688C9.26814 7.54276 9.96138 7.65175 10.88 8.01429C11.7989 8.377 12.4716 8.68771 12.8989 8.94532C13.3263 9.20285 13.6687 9.42109 13.9266 9.59808C15.426 9.17914 16.9732 8.96963 18.5689 8.96963C20.1645 8.96963 21.7122 9.17914 23.2116 9.59808L24.1304 9.01807C24.7586 8.63106 25.5006 8.27639 26.3544 7.954C27.2087 7.63177 27.8619 7.54302 28.3135 7.68825C29.0386 9.50975 29.1032 11.1538 28.5065 12.6203C29.7798 13.9905 30.4169 15.651 30.4169 17.6013C30.4169 18.9713 30.2511 20.1839 29.9212 21.2399C29.591 22.296 29.1641 23.1417 28.6404 23.7787C28.1161 24.4156 27.4632 24.9516 26.6815 25.3865C25.8997 25.8218 25.1418 26.136 24.4085 26.3296C23.675 26.5231 22.8491 26.6686 21.9304 26.7653C22.7683 27.4904 23.1873 28.6349 23.1873 30.1984V35.2996C23.1873 35.5894 23.2881 35.8313 23.4898 36.0247C23.6913 36.2177 24.0094 36.2745 24.4447 36.1936C28.1847 34.9527 31.2352 32.7163 33.5965 29.4843C35.9575 26.2527 37.1385 22.6141 37.1385 18.5679C37.1376 15.1999 36.307 12.0933 34.6475 9.24833Z" fill="white"/>
</svg>
