<svg width="13" height="13" viewBox="0 0 13 13" fill="none" xmlns="http://www.w3.org/2000/svg">
<path d="M1.52006 0C0.639371 0 0 0.607515 0 1.44394C0 2.28009 0.626685 2.88704 1.48961 2.88704C1.93728 2.88704 2.32294 2.74185 2.60513 2.46727C2.87576 2.20369 3.02489 1.84031 3.02461 1.43746C3.00488 0.591165 2.38608 0 1.52006 0ZM2.21215 2.0633C2.03736 2.23329 1.78731 2.32322 1.48961 2.32322C0.944679 2.32322 0.563819 1.96181 0.563819 1.44394C0.563819 0.917616 0.948062 0.563819 1.52006 0.563819C2.07908 0.563819 2.44839 0.911978 2.46107 1.44422C2.46079 1.68723 2.37255 1.90684 2.21215 2.0633Z" fill="#999AA2"/>
<path d="M0.270508 12.6789H2.80431V3.36319H0.270508V12.6789ZM0.834327 3.92701H2.24049V12.1148H0.834327V3.92701Z" fill="#999AA2"/>
<path d="M9.48557 3.36319C8.31057 3.36319 7.59113 3.76886 7.17447 4.15028L7.09526 3.36319H4.22852V12.6786H7.03605V7.78269C7.03605 7.57182 7.12147 7.13401 7.17504 7.01843C7.51417 6.288 7.97171 6.288 8.66465 6.288C9.46273 6.288 10.1371 7.03647 10.1371 7.92223V12.6792H12.9562V7.41592C12.9562 4.63122 11.157 3.36319 9.48557 3.36319ZM12.3923 12.1151H10.7009V7.92195C10.7009 6.73032 9.76832 5.7239 8.66465 5.7239C7.95649 5.7239 7.15417 5.7239 6.66337 6.78106C6.56216 6.99954 6.47195 7.52305 6.47195 7.78269V12.1151H4.79234V3.92701H6.58528L6.7003 5.06705H7.16235L7.24495 4.93371C7.43298 4.63094 8.02753 3.92673 9.48557 3.92673C10.8855 3.92673 12.3923 5.01828 12.3923 7.41508V12.1151Z" fill="#999AA2"/>
</svg>
