<svg width="77" height="37" viewBox="0 0 77 37" fill="none" xmlns="http://www.w3.org/2000/svg">
<path d="M39.7536 17.0874L43.417 16.8506C43.5005 17.4495 43.6538 17.8953 43.9045 18.2156C44.3084 18.7171 44.8656 18.9678 45.6038 18.9678C46.147 18.9678 46.5789 18.8424 46.8714 18.5778C47.1499 18.3688 47.3171 18.0345 47.3171 17.6863C47.3171 17.352 47.1639 17.0317 46.8992 16.8227C46.6206 16.572 45.966 16.3213 44.9352 16.0984C43.2498 15.7223 42.038 15.2209 41.3276 14.5801C40.6172 13.9812 40.2133 13.1037 40.2411 12.1704C40.2411 11.5297 40.4361 10.8889 40.7983 10.3596C41.2162 9.76067 41.7873 9.28708 42.4698 9.02243C43.208 8.70206 44.2388 8.53491 45.5342 8.53491C47.1221 8.53491 48.3339 8.82742 49.1697 9.42637C50.0054 10.0114 50.5069 10.9586 50.6601 12.254L47.0385 12.4629C46.941 11.9058 46.746 11.5018 46.4256 11.2372C46.1053 10.9725 45.6874 10.8471 45.1442 10.8471C44.6984 10.8471 44.3641 10.9446 44.1413 11.1257C43.9323 11.2929 43.793 11.5436 43.807 11.8222C43.807 12.0311 43.9184 12.2261 44.0855 12.3515C44.2666 12.5186 44.6984 12.6719 45.3809 12.8111C47.0664 13.1733 48.2643 13.5355 49.0025 13.9115C49.7408 14.2876 50.2701 14.7473 50.5904 15.2905C50.9247 15.8477 51.0919 16.4884 51.0779 17.1431C51.0779 17.9231 50.8551 18.7031 50.4094 19.3578C49.9497 20.0403 49.309 20.5696 48.5568 20.89C47.7628 21.2382 46.7599 21.4193 45.562 21.4193C43.4448 21.4193 41.9823 21.0154 41.1604 20.1936C40.3386 19.3717 39.8511 18.341 39.7536 17.0874ZM0.877532 21.2104V8.75778H7.29884C8.48281 8.75778 9.40213 8.85528 10.0289 9.06422C10.6418 9.25922 11.1851 9.66317 11.5472 10.2064C11.9512 10.8054 12.1462 11.5018 12.1322 12.2261C12.174 13.4519 11.5472 14.6219 10.4747 15.2348C10.0568 15.4716 9.59714 15.6387 9.12355 15.7223C9.47178 15.8198 9.82 15.987 10.1264 16.182C10.3632 16.377 10.5582 16.5999 10.7393 16.8366C10.9483 17.0734 11.1293 17.3381 11.2826 17.6167L13.1491 21.2243H8.77532L6.71382 17.3938C6.44917 16.9063 6.2263 16.5859 6.01736 16.4327C5.73878 16.2377 5.40448 16.1402 5.07019 16.1402H4.73589V21.1965H0.877532V21.2104ZM4.73589 13.8001H6.36559C6.71382 13.7722 7.04812 13.7165 7.38241 13.633C7.63314 13.5912 7.856 13.4519 8.00922 13.2429C8.38531 12.7415 8.32959 12.0311 7.86993 11.5993C7.61921 11.3904 7.13169 11.2789 6.43524 11.2789H4.73589V13.8001ZM0 31.8801L3.66335 31.6433C3.74692 32.2422 3.90014 32.6879 4.15087 33.0083C4.54088 33.5098 5.11197 33.7744 5.85021 33.7744C6.39345 33.7744 6.82525 33.6491 7.11776 33.3844C7.39634 33.1615 7.56349 32.8412 7.56349 32.4929C7.56349 32.1586 7.41027 31.8383 7.14562 31.6293C6.86704 31.3786 6.21237 31.1279 5.16769 30.905C3.48227 30.5289 2.27044 30.0275 1.56006 29.3868C0.849674 28.7878 0.445731 27.9103 0.473589 26.977C0.473589 26.3363 0.668596 25.6955 1.03075 25.1662C1.44862 24.5673 2.01972 24.0937 2.70224 23.829C3.44048 23.5087 4.47124 23.3415 5.76664 23.3415C7.35456 23.3415 8.56639 23.634 9.40213 24.233C10.2379 24.8319 10.7254 25.7652 10.8786 27.0606L7.25705 27.2695C7.15955 26.7124 6.96454 26.3084 6.64417 26.0438C6.33773 25.7791 5.90593 25.6538 5.3627 25.6677C4.91697 25.6677 4.58267 25.7652 4.3598 25.9602C4.13694 26.1273 4.01158 26.3781 4.0255 26.6567C4.0255 26.8656 4.13694 27.0606 4.30409 27.186C4.48516 27.3531 4.91697 27.5063 5.59949 27.6456C7.28491 28.0078 8.48281 28.3699 9.22105 28.746C9.95929 29.1221 10.4886 29.5818 10.809 30.125C11.1433 30.6822 11.3104 31.3229 11.3104 31.9636C11.3104 32.7437 11.0736 33.5098 10.6418 34.1644C10.1822 34.847 9.54142 35.3763 8.78925 35.6966C7.99529 36.0449 6.9924 36.2259 5.7945 36.2259C3.67728 36.2259 2.21472 35.822 1.39291 35.0002C0.571092 34.1644 0.111433 33.1337 0 31.8801H0Z" fill="white"/>
<path d="M18.5258 30.9052L21.8966 31.922C21.7155 32.7717 21.3395 33.5796 20.8241 34.2899C20.3505 34.9167 19.7237 35.4043 19.0133 35.7246C18.289 36.045 17.3697 36.2122 16.2553 36.2122C14.9042 36.2122 13.7899 36.0171 12.9402 35.6271C12.0766 35.2371 11.3384 34.5407 10.7116 33.5517C10.0848 32.5627 9.77832 31.2952 9.77832 29.7491C9.77832 27.6875 10.3216 26.0996 11.422 24.9992C12.5224 23.8988 14.0685 23.3417 16.0743 23.3417C17.6483 23.3417 18.874 23.662 19.7794 24.2889C20.6709 24.9296 21.3395 25.9046 21.7852 27.214L18.3865 27.9661C18.3029 27.6736 18.1776 27.3811 18.0104 27.1304C17.8015 26.8379 17.5368 26.615 17.2165 26.4479C16.8961 26.2807 16.5339 26.2111 16.1718 26.2111C15.2942 26.2111 14.6256 26.5593 14.166 27.2697C13.8178 27.7851 13.6367 28.6069 13.6367 29.7212C13.6367 31.1002 13.8456 32.0474 14.2635 32.5627C14.6814 33.0781 15.2664 33.3288 16.0325 33.3288C16.7707 33.3288 17.3279 33.1199 17.704 32.7159C18.0801 32.2841 18.3586 31.6852 18.5258 30.9052ZM26.3957 23.5506H30.2401V27.9104H34.4467V23.5506H38.319V36.0032H34.4467V30.9609H30.2401V36.0032H26.3957V23.5506Z" fill="white"/>
<path d="M37.7896 29.7769C37.7896 27.7433 38.3606 26.1554 39.4889 25.0271C40.6172 23.8989 42.2051 23.3278 44.2248 23.3278C46.3002 23.3278 47.8881 23.8849 49.0164 24.9992C50.1446 26.1136 50.7018 27.6736 50.7018 29.6794C50.7018 31.142 50.4511 32.3259 49.9636 33.2592C49.49 34.1785 48.7517 34.9307 47.8464 35.4321C46.9131 35.9475 45.757 36.2122 44.378 36.2122C42.9712 36.2122 41.8151 35.9893 40.8957 35.5436C39.9486 35.07 39.1685 34.3317 38.6532 33.4263C38.0821 32.4513 37.7896 31.2395 37.7896 29.7769ZM41.634 29.7909C41.634 31.0445 41.8708 31.9499 42.3304 32.507C42.7901 33.0503 43.4308 33.3288 44.2387 33.3288C45.0605 33.3288 45.7013 33.0642 46.1609 32.521C46.6206 31.9777 46.8435 31.0166 46.8435 29.6237C46.8435 28.4537 46.6067 27.5901 46.1331 27.0608C45.6595 26.5175 45.0187 26.2529 44.2109 26.2529C43.5005 26.225 42.818 26.5314 42.3444 27.0747C41.8708 27.6179 41.634 28.5233 41.634 29.7909ZM54.6437 29.7769C54.6437 27.7433 55.2148 26.1554 56.3431 25.0271C57.4713 23.8989 59.0593 23.3278 61.079 23.3278C63.1544 23.3278 64.7563 23.8849 65.8706 24.9992C66.9849 26.1136 67.556 27.6736 67.556 29.6794C67.556 31.142 67.3053 32.3259 66.8178 33.2592C66.3442 34.1785 65.6059 34.9307 64.7005 35.4321C63.7673 35.9475 62.6112 36.2122 61.2322 36.2122C59.8254 36.2122 58.6693 35.9893 57.7499 35.5436C56.8028 35.07 56.0227 34.3317 55.5073 33.4263C54.9363 32.4513 54.6437 31.2395 54.6437 29.7769ZM58.4882 29.7909C58.4882 31.0445 58.725 31.9499 59.1846 32.507C59.6443 33.0503 60.285 33.3288 61.0929 33.3288C61.9147 33.3288 62.5555 33.0642 63.0151 32.521C63.4748 31.9777 63.6976 31.0166 63.6976 29.6237C63.6976 28.4537 63.4609 27.5901 62.9873 27.0608C62.5137 26.5175 61.8729 26.2529 61.0651 26.2529C60.3547 26.225 59.6582 26.5314 59.1986 27.0747C58.725 27.6179 58.4882 28.5233 58.4882 29.7909Z" fill="white"/>
<path d="M67.1521 23.5505H70.9965V32.9387H77V36.0031H67.1382V23.5505H67.1521Z" fill="white"/>
<path d="M62.9146 22.832C66.7851 19.9152 67.9786 14.9709 65.5804 11.7884C63.1822 8.606 58.1004 8.39063 54.2299 11.3074C50.3594 14.2241 49.1658 19.1685 51.564 22.3509C53.9623 25.5333 59.0441 25.7487 62.9146 22.832Z" fill="#23262B"/>
<path d="M41.6934 15.4912L61.6945 0.418709L75.5347 18.7846L55.5336 33.8571L41.6934 15.4912Z" fill="#23262B"/>
<path d="M62.9146 22.832C66.7851 19.9152 67.9786 14.9709 65.5804 11.7884C63.1822 8.606 58.1004 8.39063 54.2299 11.3074C50.3594 14.2241 49.1658 19.1685 51.564 22.3509C53.9623 25.5333 59.0441 25.7487 62.9146 22.832Z" fill="#23262B"/>
<path d="M47.2627 16.7177L61.2681 6.16379L69.961 17.6996L55.9556 28.2535L47.2627 16.7177Z" fill="#23262B"/>
<path d="M62.9146 22.832C66.7851 19.9152 67.9786 14.9709 65.5804 11.7884C63.1822 8.606 58.1004 8.39063 54.2299 11.3074C50.3594 14.2241 49.1658 19.1685 51.564 22.3509C53.9623 25.5333 59.0441 25.7487 62.9146 22.832Z" fill="#23262B"/>
<path fill-rule="evenodd" clip-rule="evenodd" d="M54.4102 11.5462C50.6257 14.3981 49.5357 19.162 51.8032 22.171C54.0706 25.1799 58.9505 25.4451 62.7349 22.5932C66.5194 19.7412 67.6094 14.9773 65.3419 11.9684C63.0744 8.95947 58.1946 8.69429 54.4102 11.5462ZM51.3255 22.5309C48.7966 19.175 50.0937 14.0502 54.0502 11.0686C58.0068 8.08699 63.2906 8.25256 65.8196 11.6085C68.3485 14.9644 67.0514 20.0892 63.0949 23.0708C59.1383 26.0524 53.8545 25.8868 51.3255 22.5309Z" fill="white"/>
<path fill-rule="evenodd" clip-rule="evenodd" d="M46.8438 16.6588L61.3268 5.74503L70.3796 17.7585L55.8966 28.6723L46.8438 16.6588ZM47.6813 16.7765L56.0143 27.8347L69.5421 17.6408L61.2091 6.58258L47.6813 16.7765Z" fill="white"/>
<path fill-rule="evenodd" clip-rule="evenodd" d="M54.4102 11.5462C50.6257 14.3981 49.5357 19.162 51.8032 22.171C54.0706 25.1799 58.9505 25.4451 62.7349 22.5932C66.5194 19.7412 67.6094 14.9773 65.3419 11.9684C63.0744 8.95947 58.1946 8.69429 54.4102 11.5462ZM51.3255 22.5309C48.7966 19.175 50.0937 14.0502 54.0502 11.0686C58.0068 8.08699 63.2906 8.25256 65.8196 11.6085C68.3485 14.9644 67.0514 20.0892 63.0949 23.0708C59.1383 26.0524 53.8545 25.8868 51.3255 22.5309Z" fill="white"/>
<path d="M47.2627 16.7177L61.2681 6.16379L69.961 17.6996L55.9556 28.2535L47.2627 16.7177Z" fill="#23262B"/>
<path d="M62.9146 22.832C66.7851 19.9152 67.9786 14.9709 65.5804 11.7884C63.1822 8.606 58.1004 8.39063 54.2299 11.3074C50.3594 14.2241 49.1658 19.1685 51.564 22.3509C53.9623 25.5333 59.0441 25.7487 62.9146 22.832Z" fill="#23262B"/>
<path fill-rule="evenodd" clip-rule="evenodd" d="M54.4102 11.5462C50.6257 14.3981 49.5357 19.162 51.8032 22.171C54.0706 25.1799 58.9505 25.4451 62.7349 22.5932C66.5194 19.7412 67.6094 14.9773 65.3419 11.9684C63.0744 8.95947 58.1946 8.69429 54.4102 11.5462ZM51.3255 22.5309C48.7966 19.175 50.0937 14.0502 54.0502 11.0686C58.0068 8.08699 63.2906 8.25256 65.8196 11.6085C68.3485 14.9644 67.0514 20.0892 63.0949 23.0708C59.1383 26.0524 53.8545 25.8868 51.3255 22.5309Z" fill="white"/>
<path fill-rule="evenodd" clip-rule="evenodd" d="M46.8438 16.6588L61.3268 5.74503L70.3796 17.7585L55.8966 28.6723L46.8438 16.6588ZM47.6813 16.7765L56.0143 27.8347L69.5421 17.6408L61.2091 6.58258L47.6813 16.7765Z" fill="white"/>
<path fill-rule="evenodd" clip-rule="evenodd" d="M41.2749 15.4324L61.7537 -5.63088e-05L75.9538 18.8435L55.475 34.2759L41.2749 15.4324ZM42.1125 15.5501L55.5927 33.4384L75.1163 18.7258L61.636 0.837497L42.1125 15.5501Z" fill="white"/>
<path fill-rule="evenodd" clip-rule="evenodd" d="M54.4102 11.5462C50.6257 14.3981 49.5357 19.162 51.8032 22.171C54.0706 25.1799 58.9505 25.4451 62.7349 22.5932C66.5194 19.7412 67.6094 14.9773 65.3419 11.9684C63.0744 8.95947 58.1946 8.69429 54.4102 11.5462ZM51.3255 22.5309C48.7966 19.175 50.0937 14.0502 54.0502 11.0686C58.0068 8.08699 63.2906 8.25256 65.8196 11.6085C68.3485 14.9644 67.0514 20.0892 63.0949 23.0708C59.1383 26.0524 53.8545 25.8868 51.3255 22.5309Z" fill="white"/>
<path d="M54.6578 16.1543L56.0508 15.1792L57.764 17.6168C58.0565 18.0068 58.2794 18.4247 58.4466 18.8844C58.5441 19.2326 58.5162 19.6087 58.3769 19.943C58.1958 20.3608 57.9033 20.7091 57.5133 20.9598C57.0536 21.2802 56.6636 21.4612 56.3293 21.5169C56.009 21.5727 55.6747 21.5169 55.3682 21.3777C55.0339 21.2105 54.7414 20.9737 54.5186 20.6673L55.7165 19.5529C55.814 19.7062 55.9393 19.8455 56.0786 19.9569C56.1761 20.0265 56.2875 20.0683 56.4129 20.0683C56.5104 20.0683 56.6079 20.0265 56.6776 19.9708C56.8169 19.8872 56.9144 19.7201 56.9004 19.5529C56.8586 19.3162 56.7611 19.0794 56.6079 18.8983L54.6578 16.1543ZM58.8366 17.7004L60.1041 16.6975C60.2434 16.8646 60.4245 16.99 60.6195 17.0596C60.8981 17.1432 61.1906 17.0875 61.4274 16.9064C61.5945 16.795 61.7338 16.6418 61.7895 16.4468C61.8731 16.196 61.7338 15.9175 61.4831 15.8339C61.4413 15.82 61.3995 15.806 61.3577 15.806C61.1906 15.7921 60.8981 15.8617 60.4663 16.0428C59.7559 16.3353 59.1987 16.4468 58.7809 16.405C58.3769 16.3632 58.0008 16.1543 57.778 15.806C57.6108 15.5692 57.5272 15.2906 57.5133 15.0121C57.5133 14.6917 57.5969 14.3713 57.778 14.1067C58.0426 13.7306 58.363 13.4102 58.753 13.1595C59.338 12.7556 59.8534 12.5605 60.2991 12.5605C60.7449 12.5605 61.1627 12.7695 61.5527 13.2013L60.2991 14.1902C60.0484 13.8699 59.5748 13.8002 59.2544 14.051L59.2127 14.0927C59.0734 14.1763 58.9759 14.3017 58.9201 14.4549C58.8784 14.5663 58.9062 14.6917 58.9759 14.7892C59.0316 14.8588 59.1152 14.9146 59.2127 14.9146C59.3241 14.9285 59.5191 14.8728 59.7977 14.7474C60.4941 14.4549 61.0234 14.2878 61.3856 14.232C61.692 14.1763 62.0124 14.2042 62.3049 14.3295C62.5696 14.441 62.7924 14.636 62.9456 14.8728C63.1407 15.1514 63.2521 15.4857 63.266 15.8339C63.28 16.196 63.1824 16.5443 62.9874 16.8507C62.7367 17.2268 62.4163 17.5472 62.0403 17.7979C61.2742 18.3272 60.6474 18.5501 60.1459 18.4665C59.6027 18.3829 59.1569 18.1043 58.8366 17.7004Z" fill="white"/>
</svg>
