<svg width="92" height="69" viewBox="0 0 92 69" fill="none" xmlns="http://www.w3.org/2000/svg">
<g clip-path="url(#clip0_18_97)">
<rect width="92" height="69" fill="white"/>
<path fill-rule="evenodd" clip-rule="evenodd" d="M0 0H92V69H0V0Z" fill="#6FDCFF"/>
<path fill-rule="evenodd" clip-rule="evenodd" d="M8.65374 67.1313C9.12812 67.5913 8.96999 68.3532 10.2781 68.2525C12.2619 68.2525 12.3194 67.045 12.3194 66.1969C12.3194 65.3488 9.34374 64.17 9.19999 62.9194C9.05624 61.6688 9.88999 61.3382 10.58 61.3382C11.2556 61.3382 11.73 61.7263 11.73 62.0713C11.73 62.4163 11.4137 62.5313 10.925 62.5313C10.4362 62.5313 11.1406 62.2869 10.7237 62.1C10.3069 61.9132 10.0337 62.3875 10.0337 62.675C10.0337 62.9913 11.0687 63.0775 11.7587 62.8619C11.9025 63.5375 11.96 63.5807 10.9969 64.7307C11.6869 64.285 11.7444 64.1844 12.5062 64.4432C11.7444 63.7819 12.3194 62.4594 12.3337 62.1288C12.3481 61.7982 12.19 61.3957 11.9025 61.1944C11.3419 60.6913 10.1487 60.6625 9.42999 60.9932C8.38062 61.4532 8.32312 62.8332 8.59624 63.2932L11.5 66.2257C11.7012 66.5707 11.7875 67.5482 10.5512 67.5913C9.25749 67.6919 8.79749 65.9238 8.56749 65.3344C8.26562 65.9813 7.92062 67.7494 6.61249 67.6488C5.37624 67.6057 5.14624 66.6425 5.34749 66.2832L8.32312 63.2644C8.61062 62.8044 8.55312 61.4244 7.50374 60.9644C6.78499 60.6338 5.59187 60.6769 5.04562 61.1657C4.72937 61.3669 4.55687 61.755 4.58562 62.1C4.61437 62.445 5.17499 63.7532 4.42749 64.4C5.17499 64.1557 5.24687 64.2563 5.93687 64.6875C4.97374 63.5519 5.04562 63.5088 5.17499 62.8188C5.86499 63.0488 6.89999 62.9625 6.89999 62.6607C6.89999 62.3588 6.61249 61.8557 6.19562 62.0569C5.79312 62.2582 6.48312 62.5025 5.99437 62.5025C5.51999 62.5025 5.17499 62.4019 5.17499 62.0713C5.17499 61.7407 5.64937 61.3094 6.33937 61.3094C7.02937 61.3094 7.84874 61.6544 7.70499 62.905C7.56124 64.1557 4.54249 65.5069 4.54249 66.355C4.54249 67.2175 4.74374 68.2382 6.72749 68.2382C8.02124 68.3388 8.17937 67.5769 8.65374 67.1169V67.1313Z" fill="#FFE400"/>
<path fill-rule="evenodd" clip-rule="evenodd" d="M8.49554 49.3494C8.96991 48.8894 9.35804 47.5381 10.6518 47.6244C12.6355 47.6244 13.383 48.7312 13.383 49.5794C13.383 50.4275 9.35804 57.3419 9.21429 58.5925C9.07054 59.8431 9.90429 60.1881 10.5799 60.1881C11.2699 60.1881 11.7443 59.8 11.7443 59.4406C11.7443 59.0812 11.3993 59.0094 10.9249 59.0094C10.4505 59.0094 11.1262 59.2537 10.7237 59.4406C10.3212 59.6275 10.0337 59.1531 10.0337 58.8512C10.0337 58.5494 11.0687 58.4487 11.7587 58.6787C11.888 58.0031 11.9455 57.96 10.9968 56.81C11.6868 57.2412 11.7443 57.3562 12.5062 57.0975C11.7443 57.7587 12.3049 59.0669 12.3337 59.3975C12.3624 59.7281 12.1899 60.145 11.888 60.3462C11.3418 60.8494 10.1343 60.8637 9.41554 60.5475C8.38054 60.0731 8.32304 58.7075 8.59616 58.2475L12.5062 49.8237C12.7218 49.4787 12.1755 48.3287 10.9393 48.2856C9.64554 48.185 9.19991 49.5506 8.96991 50.14L10.738 49.9962C10.738 49.9962 10.8099 50.2837 10.738 50.4562C10.1448 50.4996 9.55449 50.5764 8.96991 50.6862L8.89804 51.5775H9.76054L9.70304 51.98C9.70304 51.98 8.96991 51.9225 8.89804 51.98C8.82616 52.0231 8.75429 52.8712 8.75429 52.8712C8.75429 52.8712 8.61054 52.9287 8.46679 52.9287C8.32304 52.9287 8.17929 52.8712 8.17929 52.8712C8.17929 52.8712 8.12179 52.0231 8.04991 51.98C7.97804 51.9225 7.24491 51.98 7.24491 51.98L7.17304 51.5775H8.04991L7.97804 50.6862C7.97804 50.6862 7.11554 50.5137 6.20991 50.4562C6.15241 50.2837 6.20991 50.0106 6.20991 50.0106L7.97804 50.14C7.74804 49.5506 7.30241 48.185 6.00866 48.2712C4.77241 48.3287 4.22616 49.4787 4.42741 49.8237L8.33741 58.2475C8.61054 58.6931 8.55304 60.0731 7.51804 60.5475C6.79929 60.8637 5.59179 60.835 5.04554 60.3462C4.74366 60.145 4.57116 59.7425 4.59991 59.4119C4.62866 59.0812 5.17491 57.7444 4.42741 57.1119C5.18929 57.3562 5.26116 57.2556 5.93679 56.81C4.98804 57.96 5.04554 58.0031 5.18929 58.6787C5.86491 58.4487 6.89991 58.535 6.89991 58.8512C6.89991 59.1387 6.61241 59.6419 6.20991 59.4406C5.80741 59.2394 6.49741 59.0094 6.00866 59.0094C5.53429 59.0094 5.18929 59.0956 5.18929 59.4406C5.18929 59.7856 5.66366 60.1881 6.33929 60.1881C7.01491 60.1881 7.84866 59.8431 7.71929 58.6069C7.57554 57.3562 3.55054 50.4131 3.55054 49.5794C3.55054 48.7169 4.29804 47.6387 6.28179 47.6387C7.57554 47.5381 8.04991 48.8894 8.50991 49.3494H8.49554Z" fill="#FFE400"/>
<path fill-rule="evenodd" clip-rule="evenodd" d="M8.49554 45.9138C8.96991 46.3738 9.35804 47.725 10.6518 47.6388C12.6355 47.6388 13.383 46.5319 13.383 45.6838C13.383 44.8356 9.35804 37.9213 9.21429 36.6706C9.07054 35.42 9.90429 35.075 10.5799 35.075C11.2699 35.075 11.7443 35.4631 11.7443 35.8225C11.7443 36.1819 11.3993 36.2538 10.9249 36.2538C10.4505 36.2538 11.1262 36.0238 10.7237 35.8225C10.3212 35.6213 10.0337 36.11 10.0337 36.4119C10.0337 36.7138 11.0687 36.8144 11.7587 36.5844C11.888 37.26 11.9455 37.3031 10.9968 38.4531C11.6868 38.0219 11.7443 37.9069 12.5062 38.1656C11.7443 37.5044 12.3049 36.1963 12.3337 35.8656C12.3624 35.535 12.1899 35.1181 11.888 34.9169C11.3418 34.4281 10.1343 34.3994 9.41554 34.7156C8.38054 35.19 8.32304 36.5556 8.59616 37.0156L12.5062 45.425C12.7218 45.77 12.1755 46.92 10.9393 46.9631C9.64554 47.0638 9.19991 45.6981 8.96991 45.1088L10.738 45.2525C10.738 45.2525 10.8099 44.965 10.738 44.7925C10.1448 44.7492 9.55449 44.6724 8.96991 44.5625L8.89804 43.6713H9.76054L9.70304 43.2688C9.70304 43.2688 8.96991 43.3263 8.89804 43.2688C8.82616 43.2256 8.75429 42.3775 8.75429 42.3775C8.75429 42.3775 8.61054 42.32 8.46679 42.32C8.32304 42.32 8.17929 42.3775 8.17929 42.3775C8.17929 42.3775 8.12179 43.2256 8.04991 43.2688C7.97804 43.3263 7.24491 43.2688 7.24491 43.2688L7.17304 43.6713H8.04991L7.97804 44.5625C7.97804 44.5625 7.11554 44.735 6.20991 44.7925C6.15241 44.965 6.20991 45.2381 6.20991 45.2381L7.97804 45.1088C7.74804 45.6981 7.30241 47.0638 6.00866 46.9775C4.77241 46.92 4.22616 45.77 4.42741 45.425L8.33741 37.0156C8.61054 36.5556 8.55304 35.19 7.51804 34.7156C6.79929 34.3994 5.59179 34.4281 5.04554 34.9169C4.74366 35.1181 4.57116 35.5206 4.59991 35.8513C4.62866 36.1819 5.17491 37.5044 4.42741 38.1513C5.18929 37.9069 5.26116 38.0075 5.93679 38.4531C4.98804 37.3031 5.04554 37.26 5.18929 36.5844C5.86491 36.8144 6.89991 36.7281 6.89991 36.4119C6.89991 36.1244 6.61241 35.6213 6.20991 35.8225C5.80741 36.0238 6.49741 36.2538 6.00866 36.2538C5.53429 36.2538 5.18929 36.1675 5.18929 35.8225C5.18929 35.4775 5.66366 35.075 6.33929 35.075C7.01491 35.075 7.84866 35.42 7.71929 36.6563C7.57554 37.9069 3.55054 44.85 3.55054 45.6838C3.55054 46.5463 4.29804 47.6244 6.28179 47.6244C7.57554 47.725 8.04991 46.3738 8.50991 45.9138H8.49554Z" fill="#FFE400"/>
<path fill-rule="evenodd" clip-rule="evenodd" d="M8.49554 23.0862C8.96991 22.6262 9.35804 21.275 10.6518 21.3612C12.6355 21.3612 13.383 22.4681 13.383 23.3162C13.383 24.1644 9.35804 31.0787 9.21429 32.3437C9.07054 33.58 9.90429 33.925 10.5799 33.925C11.2699 33.925 11.7443 33.5369 11.7443 33.1919C11.7443 32.8469 11.3993 32.7319 10.9249 32.7319C10.4505 32.7319 11.1262 32.9906 10.7237 33.1919C10.3212 33.3931 10.0337 32.89 10.0337 32.5881C10.0337 32.3006 11.0687 32.1856 11.7587 32.4156C11.888 31.74 11.9455 31.6969 10.9968 30.5469C11.6868 30.9925 11.7443 31.0931 12.5062 30.8344C11.7443 31.4956 12.3049 32.8181 12.3337 33.1344C12.3624 33.4506 12.1899 33.8819 11.888 34.0831C11.3418 34.5862 10.1343 34.6006 9.41554 34.2844C8.38054 33.81 8.32304 32.4444 8.59616 31.9844L12.5062 23.575C12.7218 23.23 12.1755 22.08 10.9393 22.0369C9.64554 21.9362 9.19991 23.3019 8.96991 23.8912L10.738 23.7475C10.738 23.7475 10.8099 24.035 10.738 24.2075C9.81804 24.265 8.96991 24.4375 8.96991 24.4375L8.89804 25.3287H9.76054L9.70304 25.7312C9.70304 25.7312 8.96991 25.6881 8.89804 25.7312C8.82616 25.7744 8.75429 26.6369 8.75429 26.6369C8.75429 26.6369 8.61054 26.68 8.46679 26.68C8.32304 26.68 8.17929 26.6369 8.17929 26.6369C8.17929 26.6369 8.12179 25.7744 8.04991 25.7312C7.97804 25.6881 7.24491 25.7312 7.24491 25.7312L7.17304 25.3287H8.04991L7.97804 24.4375C7.97804 24.4375 7.11554 24.265 6.20991 24.2075C6.15241 24.035 6.20991 23.7619 6.20991 23.7619L7.97804 23.8912C7.74804 23.3019 7.30241 21.9362 6.00866 22.0225C4.77241 22.08 4.22616 23.23 4.42741 23.575L8.33741 31.9844C8.61054 32.4444 8.55304 33.81 7.51804 34.2844C6.79929 34.6006 5.59179 34.5719 5.04554 34.0831C4.74366 33.8819 4.57116 33.4794 4.59991 33.1487C4.62866 32.8181 5.17491 31.4956 4.42741 30.8487C5.18929 31.0931 5.26116 30.9925 5.93679 30.5469C4.98804 31.6969 5.04554 31.74 5.18929 32.4156C5.86491 32.1856 6.89991 32.2862 6.89991 32.5881C6.89991 32.8756 6.61241 33.3787 6.20991 33.1775C5.80741 32.9906 6.49741 32.7462 6.00866 32.7462C5.53429 32.7462 5.18929 32.8325 5.18929 33.1775C5.18929 33.5225 5.66366 33.925 6.33929 33.925C7.01491 33.925 7.84866 33.58 7.71929 32.3437C7.57554 31.0931 3.55054 24.1644 3.55054 23.3162C3.55054 22.4681 4.29804 21.3756 6.28179 21.3756C7.57554 21.275 8.04991 22.6262 8.50991 23.1006L8.49554 23.0862Z" fill="#FFE400"/>
<path fill-rule="evenodd" clip-rule="evenodd" d="M8.49554 19.6506C8.96991 20.1106 9.35804 21.4763 10.6518 21.3756C12.6355 21.3756 13.383 20.2688 13.383 19.4206C13.383 18.5725 9.35804 11.6581 9.21429 10.4075C9.07054 9.15688 9.90429 8.81188 10.5799 8.81188C11.2699 8.81188 11.7443 9.21438 11.7443 9.55938C11.7443 9.90438 11.3993 10.005 10.9249 10.005C10.4505 10.005 11.1262 9.76063 10.7237 9.55938C10.3212 9.35813 10.0337 9.84688 10.0337 10.1488C10.0337 10.4506 11.0687 10.5513 11.7587 10.3213C11.888 10.9969 11.9455 11.04 10.9968 12.19C11.6868 11.7588 11.7443 11.6438 12.5062 11.9025C11.7443 11.2556 12.3049 9.93313 12.3337 9.60251C12.3624 9.27188 12.1899 8.85501 11.888 8.65376C11.3418 8.16501 10.1343 8.13626 9.41554 8.46688C8.38054 8.92688 8.32304 10.3069 8.59616 10.7525L12.5062 19.1763C12.7218 19.5213 12.1755 20.6713 10.9393 20.7288C9.64554 20.815 9.19991 19.4638 8.96991 18.86L10.738 19.0038C10.738 19.0038 10.8099 18.7163 10.738 18.5438C10.1451 18.5047 9.55484 18.4327 8.96991 18.3281L8.89804 17.4225H9.76054L9.70304 17.02C9.70304 17.02 8.96991 17.0775 8.89804 17.02C8.82616 16.9769 8.75429 16.1288 8.75429 16.1288C8.75429 16.1288 8.61054 16.0713 8.46679 16.0713C8.32304 16.0713 8.17929 16.1288 8.17929 16.1288C8.17929 16.1288 8.12179 16.9769 8.04991 17.02C7.97804 17.0775 7.24491 17.02 7.24491 17.02L7.17304 17.4225H8.04991L7.97804 18.3281C7.97804 18.3281 7.11554 18.4863 6.20991 18.5438C6.15241 18.7306 6.20991 19.0038 6.20991 19.0038L7.97804 18.86C7.74804 19.4638 7.30241 20.815 6.00866 20.7288C4.77241 20.6713 4.22616 19.5213 4.42741 19.1763L8.33741 10.7525C8.61054 10.3069 8.55304 8.92688 7.51804 8.45251C6.79929 8.13626 5.59179 8.16501 5.04554 8.65376C4.74366 8.85501 4.57116 9.25751 4.59991 9.58813C4.62866 9.91876 5.17491 11.2556 4.42741 11.8881C5.18929 11.6438 5.26116 11.7444 5.93679 12.19C4.98804 11.04 5.04554 10.9969 5.18929 10.3213C5.87929 10.5513 6.89991 10.465 6.89991 10.1488C6.89991 9.86126 6.61241 9.35813 6.20991 9.55938C5.80741 9.76063 6.49741 10.005 6.00866 10.005C5.53429 10.005 5.18929 9.90438 5.18929 9.55938C5.18929 9.21438 5.66366 8.81188 6.33929 8.81188C7.01491 8.81188 7.86304 9.15688 7.71929 10.3931C7.57554 11.6438 3.55054 18.5869 3.55054 19.4206C3.55054 20.2831 4.29804 21.3756 6.28179 21.3756C7.57554 21.4763 8.04991 20.1106 8.50991 19.6506H8.49554Z" fill="#FFE400"/>
<path fill-rule="evenodd" clip-rule="evenodd" d="M8.65374 1.86877C9.12812 1.40877 8.96999 0.64689 10.2781 0.747515C12.2619 0.747515 12.3194 1.95501 12.3194 2.80314C12.3194 3.65126 9.34374 4.83001 9.19999 6.08064C9.05624 7.33126 9.88999 7.66189 10.58 7.66189C11.2556 7.66189 11.73 7.27376 11.73 6.92876C11.73 6.58376 11.4137 6.46876 10.925 6.46876C10.4362 6.46876 11.1406 6.71314 10.7237 6.90001C10.3069 7.08689 10.0337 6.61251 10.0337 6.32501C10.0337 6.00876 11.0687 5.90814 11.7587 6.13814C11.9025 5.46252 11.96 5.41939 10.9969 4.26939C11.6869 4.71501 11.7444 4.81564 12.5062 4.55689C11.7444 5.21814 12.3194 6.54064 12.3337 6.87126C12.3481 7.20189 12.19 7.60439 11.9025 7.80564C11.3275 8.33751 10.1344 8.33751 9.41562 8.02126C8.36624 7.56126 8.30874 6.18126 8.58187 5.72126L11.5 2.77439C11.7012 2.42939 11.7875 1.45189 10.5512 1.40877C9.25749 1.30814 8.79749 3.07626 8.56749 3.66564C8.26562 3.01876 7.92062 1.23627 6.61249 1.33689C5.37624 1.38002 5.14624 2.34314 5.34749 2.70251L8.32312 5.72126C8.61062 6.18126 8.55312 7.56126 7.50374 8.02126C6.78499 8.35189 5.59187 8.32314 5.04562 7.82002C4.72937 7.61877 4.55687 7.23064 4.58562 6.88564C4.61437 6.54064 5.17499 5.23251 4.42749 4.58564C5.17499 4.83001 5.24687 4.72939 5.92249 4.29814C4.97374 5.43376 5.04562 5.47689 5.17499 6.16689C5.86499 5.93689 6.89999 6.02314 6.89999 6.32501C6.89999 6.62689 6.61249 7.13001 6.19562 6.92876C5.79312 6.72751 6.48312 6.48314 5.99437 6.48314C5.51999 6.48314 5.17499 6.58376 5.17499 6.91439C5.17499 7.24501 5.64937 7.67627 6.33937 7.67627C7.02937 7.67627 7.84874 7.33126 7.70499 6.08064C7.56124 4.83001 4.54249 3.47876 4.54249 2.63064C4.54249 1.76814 4.74374 0.747515 6.72749 0.747515C8.02124 0.64689 8.17937 1.40877 8.65374 1.86877V1.86877Z" fill="#FFE400"/>
<path d="M63.4681 29.5997C63.4681 22.7659 57.6225 17.226 50.4116 17.226C43.2008 17.226 37.3552 22.7659 37.3552 29.5997C37.3552 36.4335 43.2008 41.9734 50.4116 41.9734C57.6225 41.9734 63.4681 36.4335 63.4681 29.5997Z" fill="#FFE400"/>
<path fill-rule="evenodd" clip-rule="evenodd" d="M49.7979 9.84628C49.6752 9.84628 49.0922 13.958 48.8774 14.8786C48.6626 16.9498 51.639 16.8731 51.1481 14.8019L49.7979 9.83093V9.84628ZM50.8412 49.7059C50.9486 49.7059 51.8385 45.6402 52.13 44.735C52.4829 42.6944 49.5064 42.587 49.8286 44.6736L50.8412 49.7059V49.7059ZM30.0369 29.5153C30.0369 29.6227 34.3174 30.4819 35.2686 30.758C37.4166 31.1109 37.57 28.3032 35.3607 28.6101L30.0369 29.5306V29.5153ZM71.7223 30.0062C71.7223 29.8988 67.3957 29.1931 66.4291 28.9476C64.2658 28.6868 64.2505 31.4945 66.4291 31.1109L71.7223 30.0062ZM34.4248 16.4742C34.3481 16.5509 37.1711 19.7421 37.7388 20.5246C39.2116 22.0589 41.1601 19.9109 39.2116 18.8676L34.4248 16.4896V16.4742ZM66.8127 42.7098C66.8894 42.6331 63.7902 39.6873 63.1458 38.9662C61.5349 37.5547 59.8012 39.8407 61.8264 40.7306L66.8127 42.7251V42.7098ZM40.884 12.0249C40.7919 12.0709 42.1114 16.0293 42.3262 16.9652C43.0626 18.9137 45.7322 17.6402 44.3514 15.9679L40.8993 12.0249H40.884ZM59.7705 47.6807C59.8779 47.6347 58.85 43.5996 58.7119 42.6637C58.1135 40.6692 55.3672 41.7432 56.61 43.5229L59.7858 47.6654L59.7705 47.6807ZM64.4193 14.7865C64.3272 14.7098 60.9212 17.3334 60.0927 17.855C58.4511 19.2358 60.6757 21.1076 61.811 19.2819L64.4193 14.7865ZM36.3426 44.5048C36.4193 44.5816 40.0248 42.2035 40.884 41.7279C42.6177 40.4698 40.5464 38.4446 39.273 40.1936L36.3579 44.5048H36.3426ZM30.9728 22.3964C30.9267 22.4884 34.6549 24.6517 35.4681 25.2194C37.3859 26.2167 38.5059 23.6084 36.3119 23.1942L30.9728 22.3964V22.3964ZM69.8965 37.4933C69.9425 37.4013 66.3678 34.9925 65.6006 34.3788C63.7595 33.2435 62.4554 35.775 64.6187 36.3273L69.8965 37.4933V37.4933ZM57.5305 10.9663C57.4231 10.9356 55.2905 14.5564 54.7228 15.3389C54.7239 15.5887 54.8031 15.832 54.9494 16.0346C55.0958 16.2371 55.3018 16.3888 55.5387 16.4683C55.7756 16.5479 56.0314 16.5512 56.2703 16.478C56.5092 16.4048 56.7192 16.2586 56.8708 16.06L57.5305 10.9663ZM43.124 48.4478C43.2314 48.4939 45.6248 45.0111 46.2385 44.2594C47.3585 42.4796 44.6429 41.3443 44.1366 43.4002L43.124 48.4478V48.4478ZM31.2336 37.8155C31.2796 37.9076 35.5295 36.895 36.5267 36.7416C38.6133 36.1586 37.4473 33.581 35.6062 34.7777L31.2336 37.8155ZM69.9119 22.0589C69.8812 21.9668 65.5699 22.6879 64.5727 22.7799C62.4247 23.2249 63.422 25.8791 65.3398 24.8052L69.9119 22.0589V22.0589Z" fill="#FFE400"/>
<path fill-rule="evenodd" clip-rule="evenodd" d="M54.0326 10.1071C53.9252 10.0918 52.483 14.0041 52.0534 14.8633C51.4244 16.8578 54.3548 17.3488 54.3088 15.2315L54.0479 10.0918L54.0326 10.1071ZM46.5915 49.3684C46.6989 49.3991 48.4326 45.5789 48.9236 44.735C49.6907 42.8019 46.8063 42.1268 46.6989 44.2287L46.5762 49.3684H46.5915ZM45.1033 10.4907C44.9959 10.5214 45.3948 14.6638 45.3948 15.6151C45.6863 17.6556 48.5553 16.9499 47.6041 15.0474L45.1033 10.4907V10.4907ZM55.5362 49.1383C55.6436 49.123 55.5362 44.9652 55.6129 44.0139C55.4748 41.9427 52.5444 42.4643 53.3729 44.4282L55.5208 49.1383H55.5362ZM37.7082 13.9274C37.6162 13.9888 39.6567 17.6556 40.0403 18.5301C41.1449 20.3252 43.523 18.6375 41.8507 17.2107L37.7082 13.9274ZM62.9926 45.8243C63.0846 45.763 61.3049 41.958 60.9981 41.0682C60.0315 39.2117 57.546 40.746 59.0956 42.2649L62.9926 45.8243ZM32.3077 19.0825C32.2463 19.1745 35.545 21.9055 36.2354 22.6112C37.9384 23.9 39.5186 21.5066 37.4321 20.7548L32.3077 19.0825ZM68.2397 40.5158C68.3011 40.4238 65.2172 37.478 64.5728 36.7416C62.9772 35.3454 61.2282 37.6315 63.2534 38.5213L68.2397 40.5158ZM29.945 25.5109C29.9143 25.6183 33.98 27.1679 34.8699 27.6129C36.9258 28.3033 37.5855 25.557 35.3455 25.4956L29.945 25.5109V25.5109ZM70.9706 34.3789C71.0167 34.2868 67.0737 32.4764 66.2145 31.9701C64.22 31.1416 63.3454 33.8419 65.5701 34.0567L70.9706 34.3789ZM29.8069 33.4123C29.8222 33.5044 34.2102 33.443 35.2074 33.5197C37.386 33.4123 36.8644 30.6353 34.7778 31.3871L29.8069 33.4123ZM71.2622 26.5082C71.2622 26.4008 66.8742 26.1707 65.8923 26.0326C63.6983 26.0019 64.0205 28.8096 66.1531 28.1805L71.2622 26.4929V26.5082ZM33.5658 41.6052C33.6272 41.6972 37.5548 39.8254 38.4754 39.4726C40.3778 38.4753 38.6288 36.1893 37.1099 37.7389L33.5658 41.6052ZM67.672 18.2386C67.6106 18.1466 63.5756 19.7575 62.609 20.049C60.6298 20.9236 62.2101 23.317 63.8364 21.8748L67.672 18.2386V18.2386ZM39.9482 47.0364C40.0403 47.0824 42.848 43.8912 43.5537 43.2161C44.8885 41.5745 42.3263 40.1476 41.5745 42.1421L39.9482 47.0364ZM61.3816 12.7C61.3049 12.6386 58.2671 15.6304 57.5153 16.2595C56.0731 17.809 58.5279 19.4047 59.4178 17.4715L61.3663 12.7H61.3816Z" fill="#FFE400"/>
<path fill-rule="evenodd" clip-rule="evenodd" d="M30.4484 37.8298C30.6827 38.6211 30.7162 43.0521 35.4374 47.3248C40.125 51.5659 48.161 52.5154 48.161 52.5154C48.161 52.5154 48.1945 53.1167 47.6253 53.1484C47.0561 53.2117 44.3105 52.6736 42.9376 52.2622C41.5983 51.8824 40.3929 51.1861 40.259 51.2178C40.0916 51.281 39.8237 51.7241 39.4219 51.6608C39.0201 51.5975 37.0781 49.6985 36.2075 49.1921C34.4662 47.7695 32.9247 46.1422 31.6203 44.3497C30.6827 42.9255 30.4484 41.976 30.147 41.976C29.8457 41.976 28.7407 42.6723 28.7407 42.6723C28.7407 42.6723 27.7362 41.248 26.8656 38.9692C25.9616 36.6904 26.062 35.3611 26.2629 35.2662C26.4973 35.1712 26.4973 36.9436 27.167 38.5578C27.8367 40.2036 28.7742 40.71 28.7742 40.71C28.7742 40.71 28.1715 39.8554 27.7027 37.7349C27.234 35.6143 27.0331 33.5571 27.3679 32.9241C27.7027 32.2911 28.0041 32.1012 28.0376 32.1328C28.1045 32.1961 27.4683 33.114 27.9036 35.551C28.3389 37.9881 29.5108 40.0453 29.7787 39.9504C30.0466 39.8554 29.6113 39.349 29.4439 37.9248C29.2764 36.5005 29.6113 35.6143 29.9796 35.4877C30.147 35.3611 30.4149 37.0702 30.4484 37.8298V37.8298ZM27.167 41.881C26.2629 41.0898 24.8566 38.3362 24.5553 38.4628C24.2205 38.6211 26.8322 42.5773 26.8991 42.8938C26.9661 43.2736 27.5353 44.3497 27.1 44.1915C26.6647 44.0332 23.5508 40.9315 23.9191 41.5329C24.2874 42.1342 26.6313 44.8561 26.4973 45.0144C26.3634 45.1726 24.5553 43.4952 24.4883 43.7167C24.4548 43.9066 26.2629 45.5524 26.2295 45.7423C26.196 45.9322 25.0575 44.6979 25.0575 44.9511C25.0575 45.2043 26.2295 46.4386 26.2295 46.6285C26.2295 46.8184 25.225 45.7423 25.5598 46.312C25.8611 46.945 26.7317 47.4831 26.6982 47.673C26.6647 47.8629 25.9616 47.4198 25.9616 47.5147C25.9616 47.6097 27.2674 48.0528 27.5688 48.4009C27.9036 48.749 30.0466 51.0911 31.6538 52.2622C33.261 53.4332 37.8817 55.4905 38.2165 55.4905C38.5178 55.4905 38.9866 54.8575 38.8862 54.6043C38.7857 54.3511 34.2655 52.8952 33.0266 51.8191C31.7542 50.743 28.6737 48.1477 28.4059 48.0211C28.1715 47.8629 27.4684 47.9262 27.4684 47.7679C27.4684 47.6097 28.3724 47.8629 28.3054 47.7679C28.272 47.673 27.0665 47.1666 27.1 47.0716C27.167 46.9767 27.9371 47.2615 27.9371 47.1666C27.9371 47.0716 26.5308 46.3437 26.5978 46.1854C26.6313 46.0272 27.6358 46.6285 27.6358 46.5019C27.6358 46.4386 26.2964 45.5524 26.3299 45.3942C26.3634 45.2359 27.3679 46.0905 27.3344 45.9006C27.3009 45.7107 26.5308 44.6346 26.5308 44.508C26.5308 44.3497 27.7362 45.5841 27.8701 45.3309C27.9371 45.1093 27.4349 43.0521 27.4684 43.0204C27.5018 42.9888 28.3724 43.4635 28.5063 43.1787C28.6737 42.8622 27.9036 42.4507 27.167 41.881V41.881ZM42.6028 57.4528C41.9666 57.5477 41.6653 57.3262 42.0336 56.8198C42.5359 56.8198 43.8752 56.4083 44.3439 56.2184C44.8127 56.0285 45.315 55.7753 45.7168 55.4272C46.1186 55.0157 46.3864 55.6487 46.152 55.9969C45.9846 56.2184 45.2145 56.6299 44.6453 56.8514C43.8082 57.1046 43.0716 57.4844 42.6028 57.4528ZM46.7882 55.8386C46.3529 55.3955 46.7213 55.079 47.3575 54.7309C48.295 54.2561 48.0271 53.5915 49.2325 53.0534C49.7683 52.7369 57.2685 49.8885 59.7128 48.3693C62.1571 46.8501 69.0212 41.9443 70.8627 38.5578C72.6708 35.2029 71.8003 34.9497 72.0681 34.8231C72.3025 34.6648 72.5704 35.2978 72.5369 36.0574C72.4699 36.7854 71.8672 39.0009 72.0681 39.2224C72.269 39.444 74.8138 37.4817 75.8852 35.1079C76.9567 32.7342 77.7603 30.2655 78.2626 30.2655C78.7983 30.2655 77.392 34.3167 76.488 35.8992C75.6174 37.4817 74.5794 38.2729 74.8138 38.6211C75.0817 38.9376 77.6933 36.8803 78.5974 35.3611C79.468 33.8103 80.3051 32.4493 80.4725 32.7342C80.206 34.5882 79.4328 36.3445 78.2291 37.8298C76.8228 39.349 75.1486 40.4568 75.4165 40.6783C75.6509 40.9315 77.5594 41.1847 79.5349 39.9187C81.5439 38.6211 81.7448 36.7537 81.9792 36.8487C82.2471 36.9436 81.7448 39.5073 79.8363 41.0898C77.9277 42.6723 75.4165 42.8305 75.4835 43.1787C75.6174 43.4952 80.9412 41.7228 80.8408 42.1342C80.7403 42.514 73.9432 45.046 73.8762 45.2992C73.8762 45.4891 75.0482 45.5524 76.8897 45.141C78.6978 44.7612 80.439 43.4002 80.6734 43.7167C80.7403 44.1598 79.3675 45.2359 77.2916 45.7423C75.1821 46.2487 74.1441 46.9134 74.0771 47.0716C74.0437 47.2299 77.8273 46.6285 77.8273 46.8184C77.8273 47.0083 72.8718 47.9262 72.8383 48.1794C72.7713 48.4009 77.5259 47.2615 77.459 47.5464C77.325 47.7679 70.9967 49.5403 71.0636 49.6353C71.0971 49.7619 76.354 48.5592 76.2536 48.7491C76.1196 48.9706 67.414 51.281 67.347 51.4393C67.28 51.5659 75.0482 49.7935 74.9812 49.9518C74.9142 50.11 70.9632 51.0278 70.9632 51.1228C70.9632 51.2177 74.1441 50.648 74.0771 50.8063C74.0437 50.9329 66.0411 52.8635 65.8737 53.1484C65.7063 53.4649 70.0257 52.3571 69.9587 52.9268C69.8917 53.4965 60.6838 56.4083 60.6503 55.8703C60.5834 55.3322 66.242 53.9713 66.2086 53.813C66.1416 53.6548 62.9607 54.1295 62.8937 53.8447C62.8602 53.5282 65.0032 52.8952 64.8357 52.7686C64.6683 52.6103 63.0611 53.2117 63.1951 52.8635C63.3625 52.5154 66.4095 51.1861 66.3425 51.0911C66.309 50.9962 65.2375 51.4076 65.338 51.0911C65.4719 50.743 71.9342 48.9706 71.8338 48.7491C71.7333 48.5592 68.8538 49.1922 68.5859 49.2555C68.4854 49.0656 72.6039 47.6097 72.5369 47.3565C72.403 47.1349 70.327 48.211 70.1931 47.9262C70.1261 47.6097 73.8428 46.2487 73.6084 46.0272C73.374 45.8056 71.6998 46.5969 71.4655 46.3753C71.2311 46.1538 74.9812 43.7167 74.412 43.6534C73.8428 43.6218 73.1396 44.413 73.0726 43.9066C73.1396 43.2736 75.9857 42.2292 75.3495 41.7228C74.345 41.4379 70.9632 41.9443 69.5569 42.7356C68.1506 43.5268 63.4629 47.9262 62.3245 48.6225C61.1861 49.2871 57.302 50.8379 56.5654 51.1544C55.4269 51.5342 55.226 52.1039 54.0541 52.6736C51.9447 53.2117 51.9781 53.813 50.9736 54.1612C50.6053 54.2561 46.8217 55.9652 46.7882 55.8386V55.8386ZM41.4979 58.0541C40.8617 58.3706 40.2925 59.1302 40.6608 59.4467C40.8617 59.8265 41.4979 58.5922 42.0001 58.6555L44.6788 58.7821C46.1186 58.877 46.8217 58.4972 47.6253 58.5605C48.4289 58.6238 50.2035 58.1491 51.0406 58.1491C51.8777 58.1491 52.0451 58.244 52.1121 57.8959C52.2125 57.5794 49.5004 57.8009 48.295 57.7693C47.0896 57.706 45.5828 57.9908 44.6788 57.9908C43.8417 57.9592 42.4019 57.706 41.4979 58.0541V58.0541Z" fill="#FFE400"/>
<path d="M45.5159 57.6743C45.5159 57.4121 45.261 57.1996 44.9467 57.1996C44.6323 57.1996 44.3774 57.4121 44.3774 57.6743C44.3774 57.9365 44.6323 58.1491 44.9467 58.1491C45.261 58.1491 45.5159 57.9365 45.5159 57.6743Z" fill="#FFE400"/>
<path fill-rule="evenodd" clip-rule="evenodd" d="M58.8757 56.7565C59.4449 56.6615 60.9852 57.1679 62.0566 57.3895C63.9987 58.1174 67.6149 57.7693 67.6149 58.1174C67.6149 58.4656 67.3805 58.877 66.5434 58.9403C65.7063 59.0036 63.5969 58.6238 63.6638 58.6238C63.7308 58.6238 65.338 59.3518 64.8692 59.5417C64.4005 59.7316 63.0277 59.1302 62.7933 59.2885C62.5589 59.4467 64.0656 59.7316 63.7978 59.8265C63.5969 59.9215 62.5589 59.6999 62.2241 59.7316C61.8892 59.7949 62.4919 60.143 62.0901 60.2696C61.6883 60.4279 61.0187 60.0797 60.7508 60.1747C60.4494 60.2696 61.3535 60.8077 60.9517 60.871C60.5499 60.9343 59.6124 60.6178 59.0766 60.5545C58.5409 60.5545 59.5789 61.0609 59.244 61.1242C58.9092 61.1558 57.9717 60.7127 57.7373 60.7127C57.5029 60.7127 57.7373 61.3457 57.4025 61.3457C57.0676 61.3457 56.6658 60.8077 56.4649 60.8077C56.264 60.8077 56.4649 61.4407 56.1301 61.4407C55.7953 61.4407 55.6613 60.776 55.3935 60.8077C55.0586 60.871 55.3935 61.6622 54.9247 61.5989C54.4894 61.5673 54.4224 60.776 54.0541 60.8077C53.7193 60.871 54.1211 61.5989 53.7863 61.5989C53.4514 61.5989 53.3845 60.871 53.0496 60.8077C52.7148 60.776 52.8487 61.504 52.6478 61.504C52.4469 61.504 52.246 60.8077 52.1121 60.8077C52.0116 60.8077 52.1121 61.504 51.7103 61.4407C51.3085 61.3774 51.3085 60.6811 51.208 60.7127C51.0741 60.776 51.0741 61.2824 50.8062 61.2824C50.5384 61.2824 50.5049 60.776 50.4044 60.8393C50.2705 60.871 49.8687 61.504 49.6008 61.409C49.2995 61.3141 49.6678 60.8077 49.5339 60.8077C49.3999 60.8077 49.0651 61.1558 48.8642 61.1242C48.6633 61.0925 48.8642 60.6811 48.7972 60.6811C48.7303 60.6811 48.228 60.9343 47.9936 60.9343C47.7593 60.9343 47.1231 61.2508 46.9557 60.9659C46.7882 60.6494 47.3909 60.6494 47.5249 60.3646C47.6253 60.0797 47.19 59.2252 47.6588 58.9403C48.0941 58.6238 49.5339 59.3518 51.6768 58.8454C55.5609 57.8642 58.5744 56.7248 58.8757 56.7565V56.7565Z" fill="#FFE400"/>
<path fill-rule="evenodd" clip-rule="evenodd" d="M-4 -3H96.6667V72.5H-4V-3Z" fill="white"/>
<path fill-rule="evenodd" clip-rule="evenodd" d="M-4 22.1667H96.6667V72.5001H-4V22.1667Z" fill="#0039A6"/>
<path fill-rule="evenodd" clip-rule="evenodd" d="M-4 47.3333H96.6667V72.5H-4V47.3333Z" fill="#D52B1E"/>
</g>
<defs>
<clipPath id="clip0_18_97">
<rect width="92" height="69" fill="white"/>
</clipPath>
</defs>
</svg>
